<svg xmlns="http://www.w3.org/2000/svg" viewBox="0 0 24 24" width="50px"><path d="m19.906 12.996-12.72-6.2.421.672-.006-2.457a.75.75 0 0 0-.386-.654L5.207 3.244c-.95-.468-2.058-.091-2.51.826a1.9 1.9 0 0 0-.187.706l-.295 5.242a2.95 2.95 0 0 0 1.63 2.802l3.618 1.8-.117-1.27-4.461 3.359a1.85 1.85 0 0 0 .289 3.13l1.883.933a1.85 1.85 0 0 0 1.564.037l7.381-3.248-.636-.014 3.44 1.71a3.494 3.494 0 1 0 3.11-6.259.75.75 0 0 0-.334-.078h-.005v.75zm-.658 1.348a.75.75 0 0 0 .329.076h.005v-.75l-.334.672a1.994 1.994 0 1 1-1.774 3.571l-3.44-1.71a.75.75 0 0 0-.636-.014l-7.38 3.247a.35.35 0 0 1-.295-.008l-1.881-.932a.35.35 0 0 1-.053-.59l4.46-3.358a.75.75 0 0 0-.118-1.27l-3.618-1.8a1.45 1.45 0 0 1-.8-1.377l.295-5.238a.35.35 0 0 1 .504-.29l1.975 1.096-.386-.654.006 2.457a.75.75 0 0 0 .421.672zm-2.234-2.419-.9-4.918a1.85 1.85 0 0 0-.995-1.32l-1.853-.92a1.85 1.85 0 0 0-2.669 1.657v3.234a.75.75 0 0 0 1.5 0V6.425a.35.35 0 0 1 .505-.313l1.85.918a.35.35 0 0 1 .187.249l.9 4.916a.75.75 0 1 0 1.475-.27"></path></svg>